# xmcd
#
# Track frame offsets: 
#        150
#        7715
#        30181
#        51009
#        77766
#        90142
#        104741
#        124184
#        141161
#        142687
#        164474
#        166361
#        184891
#        186753
#
# Disc length: 2820 seconds
#
# Revision: 0
# Processed by: cddbd v1.5.2PL0 Copyright (c) Steve Scherf et al.
# Submitted via: ExactAudioCopyFreeDBPlugin 1.0
#
DISCID=a50b020e
DTITLE=ADX - Bestial
DYEAR=2020
DGENRE=Heavy Metal
TTITLE0=Rituel ancestral
TTITLE1=Au-dessus des croix noires
TTITLE2=Les sanguinaires
TTITLE3=Overlord
TTITLE4=Collecteurs de chair
TTITLE5=La marche des spectres
TTITLE6=Action cannibale
TTITLE7=Disgrâce
TTITLE8=L’épreuve
TTITLE9=Du sang sur les pierres
TTITLE10=Le désordre
TTITLE11=La traque
TTITLE12=L'incertitude
TTITLE13=Le mensonge
EXTD=
EXTT0=
EXTT1=
EXTT2=
EXTT3=
EXTT4=
EXTT5=
EXTT6=
EXTT7=
EXTT8=
EXTT9=
EXTT10=
EXTT11=
EXTT12=
EXTT13=
PLAYORDER=
